<mxfile host="Electron" agent="Mozilla/5.0 (Windows NT 10.0; Win64; x64) AppleWebKit/537.36 (KHTML, like Gecko) draw.io/24.7.17 Chrome/128.0.6613.36 Electron/32.0.1 Safari/537.36" version="24.7.17">
  <diagram name="Page-1" id="5RDn6TEii01dhZuj6zZr">
    <mxGraphModel dx="3453" dy="2340" grid="1" gridSize="10" guides="1" tooltips="1" connect="1" arrows="1" fold="1" page="1" pageScale="1" pageWidth="827" pageHeight="1169" math="0" shadow="0">
      <root>
        <mxCell id="0" />
        <mxCell id="1" parent="0" />
        <mxCell id="EYWDEGRxvOLZJbpFDLF8-2" value="&lt;b&gt;End&lt;/b&gt;" style="rounded=1;whiteSpace=wrap;html=1;arcSize=50;" vertex="1" parent="1">
          <mxGeometry x="580" y="990" width="120" height="60" as="geometry" />
        </mxCell>
        <mxCell id="EYWDEGRxvOLZJbpFDLF8-6" style="edgeStyle=orthogonalEdgeStyle;rounded=0;orthogonalLoop=1;jettySize=auto;html=1;exitX=0.5;exitY=1;exitDx=0;exitDy=0;entryX=0.5;entryY=0;entryDx=0;entryDy=0;" edge="1" parent="1" source="EYWDEGRxvOLZJbpFDLF8-3" target="EYWDEGRxvOLZJbpFDLF8-5">
          <mxGeometry relative="1" as="geometry" />
        </mxCell>
        <mxCell id="EYWDEGRxvOLZJbpFDLF8-3" value="&lt;b&gt;Start&lt;/b&gt;" style="rounded=1;whiteSpace=wrap;html=1;arcSize=50;" vertex="1" parent="1">
          <mxGeometry x="340" y="40" width="120" height="60" as="geometry" />
        </mxCell>
        <mxCell id="EYWDEGRxvOLZJbpFDLF8-4" value="Do all&amp;nbsp;techniques that is active" style="rounded=0;whiteSpace=wrap;html=1;" vertex="1" parent="1">
          <mxGeometry x="480" y="290" width="120" height="60" as="geometry" />
        </mxCell>
        <mxCell id="EYWDEGRxvOLZJbpFDLF8-7" style="edgeStyle=orthogonalEdgeStyle;rounded=0;orthogonalLoop=1;jettySize=auto;html=1;exitX=1;exitY=0.5;exitDx=0;exitDy=0;entryX=0.5;entryY=0;entryDx=0;entryDy=0;" edge="1" parent="1" source="EYWDEGRxvOLZJbpFDLF8-5" target="EYWDEGRxvOLZJbpFDLF8-4">
          <mxGeometry relative="1" as="geometry">
            <mxPoint x="600" y="230" as="targetPoint" />
          </mxGeometry>
        </mxCell>
        <mxCell id="EYWDEGRxvOLZJbpFDLF8-18" style="edgeStyle=orthogonalEdgeStyle;rounded=0;orthogonalLoop=1;jettySize=auto;html=1;exitX=0.5;exitY=1;exitDx=0;exitDy=0;entryX=0.5;entryY=0;entryDx=0;entryDy=0;" edge="1" parent="1" source="EYWDEGRxvOLZJbpFDLF8-5" target="EYWDEGRxvOLZJbpFDLF8-15">
          <mxGeometry relative="1" as="geometry" />
        </mxCell>
        <mxCell id="EYWDEGRxvOLZJbpFDLF8-5" value="&amp;nbsp; Is there any active techniques" style="rhombus;whiteSpace=wrap;html=1;" vertex="1" parent="1">
          <mxGeometry x="330" y="160" width="140" height="140" as="geometry" />
        </mxCell>
        <mxCell id="EYWDEGRxvOLZJbpFDLF8-39" style="edgeStyle=orthogonalEdgeStyle;rounded=0;orthogonalLoop=1;jettySize=auto;html=1;exitX=0.5;exitY=1;exitDx=0;exitDy=0;entryX=0.5;entryY=0;entryDx=0;entryDy=0;" edge="1" parent="1" source="EYWDEGRxvOLZJbpFDLF8-8" target="EYWDEGRxvOLZJbpFDLF8-14">
          <mxGeometry relative="1" as="geometry" />
        </mxCell>
        <mxCell id="EYWDEGRxvOLZJbpFDLF8-8" value="Calculate the action value to see who goes first" style="rounded=0;whiteSpace=wrap;html=1;" vertex="1" parent="1">
          <mxGeometry x="340" y="940" width="120" height="60" as="geometry" />
        </mxCell>
        <mxCell id="EYWDEGRxvOLZJbpFDLF8-14" value="Recalculate AV by using a formula&lt;div&gt;(Current AV- First Char AV )&lt;/div&gt;" style="rounded=0;whiteSpace=wrap;html=1;" vertex="1" parent="1">
          <mxGeometry x="305" y="1060" width="190" height="60" as="geometry" />
        </mxCell>
        <mxCell id="EYWDEGRxvOLZJbpFDLF8-20" style="edgeStyle=orthogonalEdgeStyle;rounded=0;orthogonalLoop=1;jettySize=auto;html=1;exitX=1;exitY=0.5;exitDx=0;exitDy=0;entryX=0.5;entryY=0;entryDx=0;entryDy=0;" edge="1" parent="1" source="EYWDEGRxvOLZJbpFDLF8-15" target="EYWDEGRxvOLZJbpFDLF8-19">
          <mxGeometry relative="1" as="geometry">
            <mxPoint x="590" y="460" as="targetPoint" />
          </mxGeometry>
        </mxCell>
        <mxCell id="EYWDEGRxvOLZJbpFDLF8-24" style="edgeStyle=orthogonalEdgeStyle;rounded=0;orthogonalLoop=1;jettySize=auto;html=1;exitX=0.5;exitY=1;exitDx=0;exitDy=0;entryX=0.5;entryY=0;entryDx=0;entryDy=0;" edge="1" parent="1" source="EYWDEGRxvOLZJbpFDLF8-15" target="EYWDEGRxvOLZJbpFDLF8-23">
          <mxGeometry relative="1" as="geometry" />
        </mxCell>
        <mxCell id="EYWDEGRxvOLZJbpFDLF8-15" value="All enemy is dead" style="rhombus;whiteSpace=wrap;html=1;" vertex="1" parent="1">
          <mxGeometry x="330" y="390" width="140" height="140" as="geometry" />
        </mxCell>
        <mxCell id="EYWDEGRxvOLZJbpFDLF8-40" style="edgeStyle=orthogonalEdgeStyle;rounded=0;orthogonalLoop=1;jettySize=auto;html=1;exitX=0.5;exitY=1;exitDx=0;exitDy=0;" edge="1" parent="1" source="EYWDEGRxvOLZJbpFDLF8-19">
          <mxGeometry relative="1" as="geometry">
            <mxPoint x="640" y="990" as="targetPoint" />
          </mxGeometry>
        </mxCell>
        <mxCell id="EYWDEGRxvOLZJbpFDLF8-19" value="Display victory" style="shape=parallelogram;perimeter=parallelogramPerimeter;whiteSpace=wrap;html=1;fixedSize=1;" vertex="1" parent="1">
          <mxGeometry x="650" y="720" width="120" height="60" as="geometry" />
        </mxCell>
        <mxCell id="EYWDEGRxvOLZJbpFDLF8-26" style="edgeStyle=orthogonalEdgeStyle;rounded=0;orthogonalLoop=1;jettySize=auto;html=1;exitX=1;exitY=0.5;exitDx=0;exitDy=0;entryX=0.5;entryY=0;entryDx=0;entryDy=0;" edge="1" parent="1" source="EYWDEGRxvOLZJbpFDLF8-23" target="EYWDEGRxvOLZJbpFDLF8-25">
          <mxGeometry relative="1" as="geometry">
            <mxPoint x="540" y="640" as="targetPoint" />
          </mxGeometry>
        </mxCell>
        <mxCell id="EYWDEGRxvOLZJbpFDLF8-55" style="edgeStyle=orthogonalEdgeStyle;rounded=0;orthogonalLoop=1;jettySize=auto;html=1;exitX=0.5;exitY=1;exitDx=0;exitDy=0;entryX=0.5;entryY=0;entryDx=0;entryDy=0;" edge="1" parent="1" source="EYWDEGRxvOLZJbpFDLF8-23" target="EYWDEGRxvOLZJbpFDLF8-54">
          <mxGeometry relative="1" as="geometry" />
        </mxCell>
        <mxCell id="EYWDEGRxvOLZJbpFDLF8-23" value="All allies is dead" style="rhombus;whiteSpace=wrap;html=1;" vertex="1" parent="1">
          <mxGeometry x="330" y="570" width="140" height="140" as="geometry" />
        </mxCell>
        <mxCell id="EYWDEGRxvOLZJbpFDLF8-27" style="edgeStyle=orthogonalEdgeStyle;rounded=0;orthogonalLoop=1;jettySize=auto;html=1;exitX=0.5;exitY=1;exitDx=0;exitDy=0;entryX=0.5;entryY=0;entryDx=0;entryDy=0;" edge="1" parent="1" source="EYWDEGRxvOLZJbpFDLF8-25" target="EYWDEGRxvOLZJbpFDLF8-2">
          <mxGeometry relative="1" as="geometry" />
        </mxCell>
        <mxCell id="EYWDEGRxvOLZJbpFDLF8-25" value="Display defeat" style="shape=parallelogram;perimeter=parallelogramPerimeter;whiteSpace=wrap;html=1;fixedSize=1;" vertex="1" parent="1">
          <mxGeometry x="510" y="720" width="120" height="60" as="geometry" />
        </mxCell>
        <mxCell id="EYWDEGRxvOLZJbpFDLF8-31" value="No" style="text;html=1;align=center;verticalAlign=middle;resizable=0;points=[];autosize=1;strokeColor=none;fillColor=none;" vertex="1" parent="1">
          <mxGeometry x="390" y="326" width="40" height="30" as="geometry" />
        </mxCell>
        <mxCell id="EYWDEGRxvOLZJbpFDLF8-33" value="Yes" style="text;html=1;align=center;verticalAlign=middle;whiteSpace=wrap;rounded=0;" vertex="1" parent="1">
          <mxGeometry x="470" y="200" width="60" height="30" as="geometry" />
        </mxCell>
        <mxCell id="EYWDEGRxvOLZJbpFDLF8-34" value="No" style="text;html=1;align=center;verticalAlign=middle;resizable=0;points=[];autosize=1;strokeColor=none;fillColor=none;" vertex="1" parent="1">
          <mxGeometry x="405" y="530" width="40" height="30" as="geometry" />
        </mxCell>
        <mxCell id="EYWDEGRxvOLZJbpFDLF8-35" value="Yes" style="text;html=1;align=center;verticalAlign=middle;whiteSpace=wrap;rounded=0;" vertex="1" parent="1">
          <mxGeometry x="490" y="430" width="60" height="30" as="geometry" />
        </mxCell>
        <mxCell id="EYWDEGRxvOLZJbpFDLF8-37" value="Yes" style="text;html=1;align=center;verticalAlign=middle;whiteSpace=wrap;rounded=0;" vertex="1" parent="1">
          <mxGeometry x="490" y="610" width="60" height="30" as="geometry" />
        </mxCell>
        <mxCell id="EYWDEGRxvOLZJbpFDLF8-43" value="" style="edgeStyle=orthogonalEdgeStyle;rounded=0;orthogonalLoop=1;jettySize=auto;html=1;exitX=0.5;exitY=1;exitDx=0;exitDy=0;" edge="1" parent="1" source="EYWDEGRxvOLZJbpFDLF8-14" target="EYWDEGRxvOLZJbpFDLF8-42">
          <mxGeometry relative="1" as="geometry">
            <mxPoint x="399.8695652173915" y="1190" as="targetPoint" />
            <mxPoint x="400" y="1120" as="sourcePoint" />
          </mxGeometry>
        </mxCell>
        <mxCell id="EYWDEGRxvOLZJbpFDLF8-47" style="edgeStyle=orthogonalEdgeStyle;rounded=0;orthogonalLoop=1;jettySize=auto;html=1;exitX=0.5;exitY=1;exitDx=0;exitDy=0;entryX=0.5;entryY=0;entryDx=0;entryDy=0;" edge="1" parent="1" source="EYWDEGRxvOLZJbpFDLF8-42" target="EYWDEGRxvOLZJbpFDLF8-45">
          <mxGeometry relative="1" as="geometry" />
        </mxCell>
        <mxCell id="EYWDEGRxvOLZJbpFDLF8-42" value="First character takes turn" style="rounded=0;whiteSpace=wrap;html=1;" vertex="1" parent="1">
          <mxGeometry x="310" y="1190" width="180" height="60" as="geometry" />
        </mxCell>
        <mxCell id="EYWDEGRxvOLZJbpFDLF8-50" style="edgeStyle=orthogonalEdgeStyle;rounded=0;orthogonalLoop=1;jettySize=auto;html=1;exitX=0.5;exitY=1;exitDx=0;exitDy=0;entryX=0.5;entryY=0;entryDx=0;entryDy=0;" edge="1" parent="1" source="EYWDEGRxvOLZJbpFDLF8-45" target="EYWDEGRxvOLZJbpFDLF8-49">
          <mxGeometry relative="1" as="geometry" />
        </mxCell>
        <mxCell id="EYWDEGRxvOLZJbpFDLF8-70" style="edgeStyle=orthogonalEdgeStyle;rounded=0;orthogonalLoop=1;jettySize=auto;html=1;exitX=0;exitY=0.5;exitDx=0;exitDy=0;entryX=0.5;entryY=1;entryDx=0;entryDy=0;" edge="1" parent="1" source="EYWDEGRxvOLZJbpFDLF8-45" target="EYWDEGRxvOLZJbpFDLF8-62">
          <mxGeometry relative="1" as="geometry" />
        </mxCell>
        <mxCell id="EYWDEGRxvOLZJbpFDLF8-45" value="Player uses ultimates" style="rhombus;whiteSpace=wrap;html=1;" vertex="1" parent="1">
          <mxGeometry x="330" y="1300" width="140" height="140" as="geometry" />
        </mxCell>
        <mxCell id="EYWDEGRxvOLZJbpFDLF8-48" value="&lt;h1 style=&quot;margin-top: 0px;&quot;&gt;&lt;span style=&quot;background-color: initial;&quot;&gt;Honkai Starrail Battle Simulation Flowchart&lt;/span&gt;&lt;/h1&gt;&lt;h1 style=&quot;margin-top: 0px;&quot;&gt;&lt;span style=&quot;font-size: 12px; font-weight: 400;&quot;&gt;A flowchart of how a HSR battle simulation will work&lt;/span&gt;&lt;/h1&gt;" style="text;html=1;whiteSpace=wrap;overflow=hidden;rounded=0;" vertex="1" parent="1">
          <mxGeometry x="30" y="40" width="280" height="110" as="geometry" />
        </mxCell>
        <mxCell id="EYWDEGRxvOLZJbpFDLF8-73" style="edgeStyle=orthogonalEdgeStyle;rounded=0;orthogonalLoop=1;jettySize=auto;html=1;exitX=0.5;exitY=1;exitDx=0;exitDy=0;entryX=0.5;entryY=0;entryDx=0;entryDy=0;" edge="1" parent="1" source="EYWDEGRxvOLZJbpFDLF8-49">
          <mxGeometry relative="1" as="geometry">
            <mxPoint x="400" y="1720" as="targetPoint" />
          </mxGeometry>
        </mxCell>
        <mxCell id="EYWDEGRxvOLZJbpFDLF8-76" style="edgeStyle=orthogonalEdgeStyle;rounded=0;orthogonalLoop=1;jettySize=auto;html=1;exitX=1;exitY=0.5;exitDx=0;exitDy=0;entryX=0.5;entryY=0;entryDx=0;entryDy=0;" edge="1" parent="1" source="EYWDEGRxvOLZJbpFDLF8-49" target="EYWDEGRxvOLZJbpFDLF8-78">
          <mxGeometry relative="1" as="geometry">
            <mxPoint x="740" y="1600" as="targetPoint" />
            <Array as="points">
              <mxPoint x="730" y="1550" />
            </Array>
          </mxGeometry>
        </mxCell>
        <mxCell id="EYWDEGRxvOLZJbpFDLF8-49" value="First character is an ally" style="rhombus;whiteSpace=wrap;html=1;" vertex="1" parent="1">
          <mxGeometry x="330" y="1480" width="140" height="140" as="geometry" />
        </mxCell>
        <mxCell id="EYWDEGRxvOLZJbpFDLF8-56" style="edgeStyle=orthogonalEdgeStyle;rounded=0;orthogonalLoop=1;jettySize=auto;html=1;exitX=0.5;exitY=1;exitDx=0;exitDy=0;entryX=0.5;entryY=0;entryDx=0;entryDy=0;" edge="1" parent="1" source="EYWDEGRxvOLZJbpFDLF8-54" target="EYWDEGRxvOLZJbpFDLF8-8">
          <mxGeometry relative="1" as="geometry" />
        </mxCell>
        <mxCell id="EYWDEGRxvOLZJbpFDLF8-65" style="edgeStyle=orthogonalEdgeStyle;rounded=0;orthogonalLoop=1;jettySize=auto;html=1;exitX=0;exitY=0.5;exitDx=0;exitDy=0;entryX=0.5;entryY=1;entryDx=0;entryDy=0;" edge="1" parent="1" source="EYWDEGRxvOLZJbpFDLF8-54" target="EYWDEGRxvOLZJbpFDLF8-62">
          <mxGeometry relative="1" as="geometry" />
        </mxCell>
        <mxCell id="EYWDEGRxvOLZJbpFDLF8-54" value="Player uses ultimates" style="rhombus;whiteSpace=wrap;html=1;" vertex="1" parent="1">
          <mxGeometry x="330" y="750" width="140" height="140" as="geometry" />
        </mxCell>
        <mxCell id="EYWDEGRxvOLZJbpFDLF8-57" value="No" style="text;html=1;align=center;verticalAlign=middle;whiteSpace=wrap;rounded=0;" vertex="1" parent="1">
          <mxGeometry x="405" y="900" width="60" height="30" as="geometry" />
        </mxCell>
        <mxCell id="EYWDEGRxvOLZJbpFDLF8-60" value="Yes" style="text;html=1;align=center;verticalAlign=middle;whiteSpace=wrap;rounded=0;" vertex="1" parent="1">
          <mxGeometry x="260" y="790" width="60" height="30" as="geometry" />
        </mxCell>
        <mxCell id="EYWDEGRxvOLZJbpFDLF8-66" style="edgeStyle=orthogonalEdgeStyle;rounded=0;orthogonalLoop=1;jettySize=auto;html=1;exitX=0.5;exitY=0;exitDx=0;exitDy=0;entryX=0;entryY=0.5;entryDx=0;entryDy=0;" edge="1" parent="1" source="EYWDEGRxvOLZJbpFDLF8-62" target="EYWDEGRxvOLZJbpFDLF8-15">
          <mxGeometry relative="1" as="geometry" />
        </mxCell>
        <mxCell id="EYWDEGRxvOLZJbpFDLF8-62" value="Do all ultimate action" style="rounded=0;whiteSpace=wrap;html=1;" vertex="1" parent="1">
          <mxGeometry x="60" y="620" width="120" height="60" as="geometry" />
        </mxCell>
        <mxCell id="EYWDEGRxvOLZJbpFDLF8-68" value="No" style="text;html=1;align=center;verticalAlign=middle;whiteSpace=wrap;rounded=0;" vertex="1" parent="1">
          <mxGeometry x="400" y="1440" width="60" height="30" as="geometry" />
        </mxCell>
        <mxCell id="EYWDEGRxvOLZJbpFDLF8-71" value="Yes" style="text;html=1;align=center;verticalAlign=middle;whiteSpace=wrap;rounded=0;" vertex="1" parent="1">
          <mxGeometry x="260" y="1340" width="60" height="30" as="geometry" />
        </mxCell>
        <mxCell id="EYWDEGRxvOLZJbpFDLF8-74" value="No" style="text;html=1;align=center;verticalAlign=middle;whiteSpace=wrap;rounded=0;" vertex="1" parent="1">
          <mxGeometry x="400" y="1620" width="60" height="30" as="geometry" />
        </mxCell>
        <mxCell id="EYWDEGRxvOLZJbpFDLF8-80" style="edgeStyle=orthogonalEdgeStyle;rounded=0;orthogonalLoop=1;jettySize=auto;html=1;exitX=0.5;exitY=1;exitDx=0;exitDy=0;entryX=0.5;entryY=0;entryDx=0;entryDy=0;" edge="1" parent="1" source="EYWDEGRxvOLZJbpFDLF8-78" target="EYWDEGRxvOLZJbpFDLF8-79">
          <mxGeometry relative="1" as="geometry" />
        </mxCell>
        <mxCell id="EYWDEGRxvOLZJbpFDLF8-78" value="Input what to do" style="shape=parallelogram;perimeter=parallelogramPerimeter;whiteSpace=wrap;html=1;fixedSize=1;" vertex="1" parent="1">
          <mxGeometry x="670" y="1620" width="120" height="60" as="geometry" />
        </mxCell>
        <mxCell id="EYWDEGRxvOLZJbpFDLF8-89" style="edgeStyle=orthogonalEdgeStyle;rounded=0;orthogonalLoop=1;jettySize=auto;html=1;exitX=0.5;exitY=1;exitDx=0;exitDy=0;entryX=1;entryY=0.5;entryDx=0;entryDy=0;" edge="1" parent="1" source="EYWDEGRxvOLZJbpFDLF8-79" target="EYWDEGRxvOLZJbpFDLF8-87">
          <mxGeometry relative="1" as="geometry" />
        </mxCell>
        <mxCell id="EYWDEGRxvOLZJbpFDLF8-79" value="Ally do stuff base on input" style="rounded=0;whiteSpace=wrap;html=1;" vertex="1" parent="1">
          <mxGeometry x="670" y="1770" width="120" height="60" as="geometry" />
        </mxCell>
        <mxCell id="EYWDEGRxvOLZJbpFDLF8-81" value="Yes" style="text;html=1;align=center;verticalAlign=middle;whiteSpace=wrap;rounded=0;" vertex="1" parent="1">
          <mxGeometry x="490" y="1520" width="60" height="30" as="geometry" />
        </mxCell>
        <mxCell id="EYWDEGRxvOLZJbpFDLF8-88" style="edgeStyle=orthogonalEdgeStyle;rounded=0;orthogonalLoop=1;jettySize=auto;html=1;exitX=0.5;exitY=1;exitDx=0;exitDy=0;entryX=0.5;entryY=0;entryDx=0;entryDy=0;" edge="1" parent="1" source="EYWDEGRxvOLZJbpFDLF8-82" target="EYWDEGRxvOLZJbpFDLF8-87">
          <mxGeometry relative="1" as="geometry" />
        </mxCell>
        <mxCell id="EYWDEGRxvOLZJbpFDLF8-82" value="Non-ally do stuff" style="rounded=0;whiteSpace=wrap;html=1;" vertex="1" parent="1">
          <mxGeometry x="340" y="1724" width="120" height="60" as="geometry" />
        </mxCell>
        <mxCell id="EYWDEGRxvOLZJbpFDLF8-90" style="edgeStyle=orthogonalEdgeStyle;rounded=0;orthogonalLoop=1;jettySize=auto;html=1;exitX=0.5;exitY=1;exitDx=0;exitDy=0;entryX=0;entryY=0.5;entryDx=0;entryDy=0;" edge="1" parent="1" source="EYWDEGRxvOLZJbpFDLF8-87" target="EYWDEGRxvOLZJbpFDLF8-15">
          <mxGeometry relative="1" as="geometry">
            <Array as="points">
              <mxPoint x="400" y="2000" />
              <mxPoint x="40" y="2000" />
              <mxPoint x="40" y="460" />
            </Array>
          </mxGeometry>
        </mxCell>
        <mxCell id="EYWDEGRxvOLZJbpFDLF8-87" value="Recalculate first character AV with action guage = 10,000" style="rounded=0;whiteSpace=wrap;html=1;" vertex="1" parent="1">
          <mxGeometry x="340" y="1870" width="120" height="60" as="geometry" />
        </mxCell>
      </root>
    </mxGraphModel>
  </diagram>
</mxfile>
